<?xml version="1.0" standalone="no"?>
<svg xmlns="http://www.w3.org/2000/svg" width="500" height="500"><defs><clipPath id="clip-path-dot-color"><circle cx="29.5" cy="117.5" r="5.5" transform="rotate(0,29.5,117.5)"/><path d="M 24 178v 11h 5.5a 5.5 5.5, 0, 0, 0, 0 -11" transform="rotate(180,29.5,183.5)"/><path d="M 24 200v 11h 11v -5.5a 5.5 5.5, 0, 0, 0, -5.5 -5.5" transform="rotate(-90,29.5,205.5)"/><rect x="24" y="211" width="11" height="11" transform="rotate(0,29.5,216.5)"/><path d="M 24 222v 11h 11v -5.5a 5.5 5.5, 0, 0, 0, -5.5 -5.5" transform="rotate(180,29.5,227.5)"/><path d="M 24 244v 11h 11v -5.5a 5.5 5.5, 0, 0, 0, -5.5 -5.5" transform="rotate(-90,29.5,249.5)"/><path d="M 24 255v 11h 11v -5.5a 5.5 5.5, 0, 0, 0, -5.5 -5.5" transform="rotate(180,29.5,260.5)"/><path d="M 24 277v 11h 5.5a 5.5 5.5, 0, 0, 0, 0 -11" transform="rotate(-90,29.5,282.5)"/><path d="M 24 288v 11h 11v -5.5a 5.5 5.5, 0, 0, 0, -5.5 -5.5" transform="rotate(180,29.5,293.5)"/><path d="M 24 310v 11h 5.5a 5.5 5.5, 0, 0, 0, 0 -11" transform="rotate(-90,29.5,315.5)"/><path d="M 24 321v 11h 11v -5.5a 5.5 5.5, 0, 0, 0, -5.5 -5.5" transform="rotate(180,29.5,326.5)"/><path d="M 24 354v 11h 11v -5.5a 5.5 5.5, 0, 0, 0, -5.5 -5.5" transform="rotate(-90,29.5,359.5)"/><path d="M 24 365v 11h 5.5a 5.5 5.5, 0, 0, 0, 0 -11" transform="rotate(90,29.5,370.5)"/><path d="M 35 134v 11h 11v -5.5a 5.5 5.5, 0, 0, 0, -5.5 -5.5" transform="rotate(-90,40.5,139.5)"/><rect x="35" y="145" width="11" height="11" transform="rotate(0,40.5,150.5)"/><rect x="35" y="156" width="11" height="11" transform="rotate(0,40.5,161.5)"/><rect x="35" y="167" width="11" height="11" transform="rotate(0,40.5,172.5)"/><rect x="35" y="178" width="11" height="11" transform="rotate(0,40.5,183.5)"/><rect x="35" y="189" width="11" height="11" transform="rotate(0,40.5,194.5)"/><rect x="35" y="200" width="11" height="11" transform="rotate(0,40.5,205.5)"/><rect x="35" y="211" width="11" height="11" transform="rotate(0,40.5,216.5)"/><rect x="35" y="222" width="11" height="11" transform="rotate(0,40.5,227.5)"/><rect x="35" y="233" width="11" height="11" transform="rotate(0,40.5,238.5)"/><rect x="35" y="244" width="11" height="11" transform="rotate(0,40.5,249.5)"/><rect x="35" y="255" width="11" height="11" transform="rotate(0,40.5,260.5)"/><path d="M 35 288v 11h 5.5a 5.5 5.5, 0, 0, 0, 0 -11" transform="rotate(0,40.5,293.5)"/><path d="M 35 321v 11h 5.5a 5.5 5.5, 0, 0, 0, 0 -11" transform="rotate(0,40.5,326.5)"/><path d="M 35 354v 11h 5.5a 5.5 5.5, 0, 0, 0, 0 -11" transform="rotate(0,40.5,359.5)"/><path d="M 35 376v 11h 5.5a 5.5 5.5, 0, 0, 0, 0 -11" transform="rotate(180,40.5,381.5)"/><path d="M 46 112v 11h 5.5a 5.5 5.5, 0, 0, 0, 0 -11" transform="rotate(180,51.5,117.5)"/><rect x="46" y="134" width="11" height="11" transform="rotate(0,51.5,139.5)"/><rect x="46" y="145" width="11" height="11" transform="rotate(0,51.5,150.5)"/><rect x="46" y="167" width="11" height="11" transform="rotate(0,51.5,172.5)"/><path d="M 46 189v 11h 5.5a 5.5 5.5, 0, 0, 0, 0 -11" transform="rotate(0,51.5,194.5)"/><rect x="46" y="211" width="11" height="11" transform="rotate(0,51.5,216.5)"/><path d="M 46 222v 11h 11v -5.5a 5.5 5.5, 0, 0, 0, -5.5 -5.5" transform="rotate(90,51.5,227.5)"/><path d="M 46 255v 11h 5.5a 5.5 5.5, 0, 0, 0, 0 -11" transform="rotate(0,51.5,260.5)"/><circle cx="51.5" cy="315.5" r="5.5" transform="rotate(0,51.5,315.5)"/><path d="M 46 332v 11h 5.5a 5.5 5.5, 0, 0, 0, 0 -11" transform="rotate(-90,51.5,337.5)"/><path d="M 46 343v 11h 5.5a 5.5 5.5, 0, 0, 0, 0 -11" transform="rotate(90,51.5,348.5)"/><rect x="46" y="376" width="11" height="11" transform="rotate(0,51.5,381.5)"/><path d="M 57 112v 11h 11v -5.5a 5.5 5.5, 0, 0, 0, -5.5 -5.5" transform="rotate(0,62.5,117.5)"/><rect x="57" y="123" width="11" height="11" transform="rotate(0,62.5,128.5)"/><rect x="57" y="134" width="11" height="11" transform="rotate(0,62.5,139.5)"/><rect x="57" y="145" width="11" height="11" transform="rotate(0,62.5,150.5)"/><rect x="57" y="156" width="11" height="11" transform="rotate(0,62.5,161.5)"/><path d="M 57 167v 11h 11v -5.5a 5.5 5.5, 0, 0, 0, -5.5 -5.5" transform="rotate(90,62.5,172.5)"/><path d="M 57 200v 11h 11v -5.5a 5.5 5.5, 0, 0, 0, -5.5 -5.5" transform="rotate(-90,62.5,205.5)"/><rect x="57" y="211" width="11" height="11" transform="rotate(0,62.5,216.5)"/><path d="M 57 244v 11h 5.5a 5.5 5.5, 0, 0, 0, 0 -11" transform="rotate(180,62.5,249.5)"/><path d="M 57 266v 11h 5.5a 5.5 5.5, 0, 0, 0, 0 -11" transform="rotate(180,62.5,271.5)"/><path d="M 57 299v 11h 5.5a 5.5 5.5, 0, 0, 0, 0 -11" transform="rotate(180,62.5,304.5)"/><path d="M 57 365v 11h 5.5a 5.5 5.5, 0, 0, 0, 0 -11" transform="rotate(-90,62.5,370.5)"/><path d="M 57 376v 11h 11v -5.5a 5.5 5.5, 0, 0, 0, -5.5 -5.5" transform="rotate(90,62.5,381.5)"/><rect x="68" y="123" width="11" height="11" transform="rotate(0,73.5,128.5)"/><rect x="68" y="134" width="11" height="11" transform="rotate(0,73.5,139.5)"/><path d="M 68 145v 11h 11v -5.5a 5.5 5.5, 0, 0, 0, -5.5 -5.5" transform="rotate(90,73.5,150.5)"/><path d="M 68 189v 11h 5.5a 5.5 5.5, 0, 0, 0, 0 -11" transform="rotate(-90,73.5,194.5)"/><rect x="68" y="200" width="11" height="11" transform="rotate(0,73.5,205.5)"/><rect x="68" y="211" width="11" height="11" transform="rotate(0,73.5,216.5)"/><path d="M 68 233v 11h 11v -5.5a 5.5 5.5, 0, 0, 0, -5.5 -5.5" transform="rotate(-90,73.5,238.5)"/><rect x="68" y="244" width="11" height="11" transform="rotate(0,73.5,249.5)"/><rect x="68" y="266" width="11" height="11" transform="rotate(0,73.5,271.5)"/><rect x="68" y="277" width="11" height="11" transform="rotate(0,73.5,282.5)"/><rect x="68" y="288" width="11" height="11" transform="rotate(0,73.5,293.5)"/><rect x="68" y="299" width="11" height="11" transform="rotate(0,73.5,304.5)"/><path d="M 68 321v 11h 11v -5.5a 5.5 5.5, 0, 0, 0, -5.5 -5.5" transform="rotate(-90,73.5,326.5)"/><path d="M 68 332v 11h 5.5a 5.5 5.5, 0, 0, 0, 0 -11" transform="rotate(90,73.5,337.5)"/><path d="M 79 112v 11h 11v -5.5a 5.5 5.5, 0, 0, 0, -5.5 -5.5" transform="rotate(-90,84.5,117.5)"/><rect x="79" y="123" width="11" height="11" transform="rotate(0,84.5,128.5)"/><rect x="79" y="134" width="11" height="11" transform="rotate(0,84.5,139.5)"/><path d="M 79 156v 11h 11v -5.5a 5.5 5.5, 0, 0, 0, -5.5 -5.5" transform="rotate(-90,84.5,161.5)"/><path d="M 79 167v 11h 5.5a 5.5 5.5, 0, 0, 0, 0 -11" transform="rotate(90,84.5,172.5)"/><path d="M 79 211v 11h 5.5a 5.5 5.5, 0, 0, 0, 0 -11" transform="rotate(0,84.5,216.5)"/><path d="M 79 233v 11h 11v -5.5a 5.5 5.5, 0, 0, 0, -5.5 -5.5" transform="rotate(0,84.5,238.5)"/><rect x="79" y="244" width="11" height="11" transform="rotate(0,84.5,249.5)"/><rect x="79" y="255" width="11" height="11" transform="rotate(0,84.5,260.5)"/><rect x="79" y="266" width="11" height="11" transform="rotate(0,84.5,271.5)"/><path d="M 79 277v 11h 11v -5.5a 5.5 5.5, 0, 0, 0, -5.5 -5.5" transform="rotate(90,84.5,282.5)"/><path d="M 79 299v 11h 11v -5.5a 5.5 5.5, 0, 0, 0, -5.5 -5.5" transform="rotate(0,84.5,304.5)"/><rect x="79" y="310" width="11" height="11" transform="rotate(0,84.5,315.5)"/><path d="M 79 321v 11h 11v -5.5a 5.5 5.5, 0, 0, 0, -5.5 -5.5" transform="rotate(90,84.5,326.5)"/><circle cx="84.5" cy="370.5" r="5.5" transform="rotate(0,84.5,370.5)"/><rect x="90" y="112" width="11" height="11" transform="rotate(0,95.5,117.5)"/><path d="M 90 134v 11h 5.5a 5.5 5.5, 0, 0, 0, 0 -11" transform="rotate(0,95.5,139.5)"/><path d="M 90 156v 11h 5.5a 5.5 5.5, 0, 0, 0, 0 -11" transform="rotate(0,95.5,161.5)"/><path d="M 90 178v 11h 5.5a 5.5 5.5, 0, 0, 0, 0 -11" transform="rotate(180,95.5,183.5)"/><circle cx="95.5" cy="205.5" r="5.5" transform="rotate(0,95.5,205.5)"/><path d="M 90 222v 11h 5.5a 5.5 5.5, 0, 0, 0, 0 -11" transform="rotate(180,95.5,227.5)"/><path d="M 90 244v 11h 5.5a 5.5 5.5, 0, 0, 0, 0 -11" transform="rotate(0,95.5,249.5)"/><path d="M 90 266v 11h 5.5a 5.5 5.5, 0, 0, 0, 0 -11" transform="rotate(0,95.5,271.5)"/><path d="M 90 288v 11h 5.5a 5.5 5.5, 0, 0, 0, 0 -11" transform="rotate(180,95.5,293.5)"/><rect x="90" y="310" width="11" height="11" transform="rotate(0,95.5,315.5)"/><circle cx="95.5" cy="337.5" r="5.5" transform="rotate(0,95.5,337.5)"/><path d="M 90 354v 11h 5.5a 5.5 5.5, 0, 0, 0, 0 -11" transform="rotate(180,95.5,359.5)"/><circle cx="95.5" cy="381.5" r="5.5" transform="rotate(0,95.5,381.5)"/><rect x="101" y="112" width="11" height="11" transform="rotate(0,106.5,117.5)"/><path d="M 101 145v 11h 5.5a 5.5 5.5, 0, 0, 0, 0 -11" transform="rotate(180,106.5,150.5)"/><path d="M 101 178v 11h 11v -5.5a 5.5 5.5, 0, 0, 0, -5.5 -5.5" transform="rotate(0,106.5,183.5)"/><path d="M 101 189v 11h 11v -5.5a 5.5 5.5, 0, 0, 0, -5.5 -5.5" transform="rotate(180,106.5,194.5)"/><path d="M 101 222v 11h 5.5a 5.5 5.5, 0, 0, 0, 0 -11" transform="rotate(0,106.5,227.5)"/><circle cx="106.5" cy="260.5" r="5.5" transform="rotate(0,106.5,260.5)"/><path d="M 101 277v 11h 5.5a 5.5 5.5, 0, 0, 0, 0 -11" transform="rotate(-90,106.5,282.5)"/><path d="M 101 288v 11h 11v -5.5a 5.5 5.5, 0, 0, 0, -5.5 -5.5" transform="rotate(90,106.5,293.5)"/><rect x="101" y="310" width="11" height="11" transform="rotate(0,106.5,315.5)"/><path d="M 101 343v 11h 5.5a 5.5 5.5, 0, 0, 0, 0 -11" transform="rotate(-90,106.5,348.5)"/><path d="M 101 354v 11h 11v -5.5a 5.5 5.5, 0, 0, 0, -5.5 -5.5" transform="rotate(90,106.5,359.5)"/><path d="M 112 35v 11h 5.5a 5.5 5.5, 0, 0, 0, 0 -11" transform="rotate(180,117.5,40.5)"/><circle cx="117.5" cy="62.5" r="5.5" transform="rotate(0,117.5,62.5)"/><path d="M 112 79v 11h 5.5a 5.5 5.5, 0, 0, 0, 0 -11" transform="rotate(-90,117.5,84.5)"/><rect x="112" y="90" width="11" height="11" transform="rotate(0,117.5,95.5)"/><rect x="112" y="101" width="11" height="11" transform="rotate(0,117.5,106.5)"/><rect x="112" y="112" width="11" height="11" transform="rotate(0,117.5,117.5)"/><path d="M 112 123v 11h 11v -5.5a 5.5 5.5, 0, 0, 0, -5.5 -5.5" transform="rotate(180,117.5,128.5)"/><rect x="112" y="145" width="11" height="11" transform="rotate(0,117.5,150.5)"/><rect x="112" y="156" width="11" height="11" transform="rotate(0,117.5,161.5)"/><path d="M 112 167v 11h 11v -5.5a 5.5 5.5, 0, 0, 0, -5.5 -5.5" transform="rotate(180,117.5,172.5)"/><path d="M 112 189v 11h 11v -5.5a 5.5 5.5, 0, 0, 0, -5.5 -5.5" transform="rotate(0,117.5,194.5)"/><path d="M 112 200v 11h 5.5a 5.5 5.5, 0, 0, 0, 0 -11" transform="rotate(90,117.5,205.5)"/><path d="M 112 299v 11h 5.5a 5.5 5.5, 0, 0, 0, 0 -11" transform="rotate(-90,117.5,304.5)"/><rect x="112" y="310" width="11" height="11" transform="rotate(0,117.5,315.5)"/><rect x="112" y="321" width="11" height="11" transform="rotate(0,117.5,326.5)"/><path d="M 112 332v 11h 11v -5.5a 5.5 5.5, 0, 0, 0, -5.5 -5.5" transform="rotate(180,117.5,337.5)"/><path d="M 112 387v 11h 5.5a 5.5 5.5, 0, 0, 0, 0 -11" transform="rotate(-90,117.5,392.5)"/><rect x="112" y="398" width="11" height="11" transform="rotate(0,117.5,403.5)"/><path d="M 112 409v 11h 5.5a 5.5 5.5, 0, 0, 0, 0 -11" transform="rotate(90,117.5,414.5)"/><path d="M 112 431v 11h 11v -5.5a 5.5 5.5, 0, 0, 0, -5.5 -5.5" transform="rotate(-90,117.5,436.5)"/><path d="M 112 442v 11h 11v -5.5a 5.5 5.5, 0, 0, 0, -5.5 -5.5" transform="rotate(180,117.5,447.5)"/><path d="M 112 464v 11h 5.5a 5.5 5.5, 0, 0, 0, 0 -11" transform="rotate(180,117.5,469.5)"/><path d="M 123 24v 11h 11v -5.5a 5.5 5.5, 0, 0, 0, -5.5 -5.5" transform="rotate(-90,128.5,29.5)"/><rect x="123" y="35" width="11" height="11" transform="rotate(0,128.5,40.5)"/><path d="M 123 46v 11h 5.5a 5.5 5.5, 0, 0, 0, 0 -11" transform="rotate(90,128.5,51.5)"/><path d="M 123 68v 11h 5.5a 5.5 5.5, 0, 0, 0, 0 -11" transform="rotate(180,128.5,73.5)"/><rect x="123" y="123" width="11" height="11" transform="rotate(0,128.5,128.5)"/><rect x="123" y="134" width="11" height="11" transform="rotate(0,128.5,139.5)"/><path d="M 123 145v 11h 11v -5.5a 5.5 5.5, 0, 0, 0, -5.5 -5.5" transform="rotate(90,128.5,150.5)"/><path d="M 123 167v 11h 5.5a 5.5 5.5, 0, 0, 0, 0 -11" transform="rotate(0,128.5,172.5)"/><path d="M 123 211v 11h 5.5a 5.5 5.5, 0, 0, 0, 0 -11" transform="rotate(180,128.5,216.5)"/><path d="M 123 244v 11h 5.5a 5.5 5.5, 0, 0, 0, 0 -11" transform="rotate(-90,128.5,249.5)"/><path d="M 123 255v 11h 11v -5.5a 5.5 5.5, 0, 0, 0, -5.5 -5.5" transform="rotate(180,128.5,260.5)"/><path d="M 123 277v 11h 5.5a 5.5 5.5, 0, 0, 0, 0 -11" transform="rotate(180,128.5,282.5)"/><rect x="123" y="310" width="11" height="11" transform="rotate(0,128.5,315.5)"/><path d="M 123 332v 11h 11v -5.5a 5.5 5.5, 0, 0, 0, -5.5 -5.5" transform="rotate(0,128.5,337.5)"/><rect x="123" y="343" width="11" height="11" transform="rotate(0,128.5,348.5)"/><path d="M 123 354v 11h 11v -5.5a 5.5 5.5, 0, 0, 0, -5.5 -5.5" transform="rotate(180,128.5,359.5)"/><circle cx="128.5" cy="381.5" r="5.5" transform="rotate(0,128.5,381.5)"/><rect x="123" y="398" width="11" height="11" transform="rotate(0,128.5,403.5)"/><rect x="123" y="431" width="11" height="11" transform="rotate(0,128.5,436.5)"/><rect x="123" y="442" width="11" height="11" transform="rotate(0,128.5,447.5)"/><path d="M 123 464v 11h 5.5a 5.5 5.5, 0, 0, 0, 0 -11" transform="rotate(0,128.5,469.5)"/><rect x="134" y="24" width="11" height="11" transform="rotate(0,139.5,29.5)"/><path d="M 134 35v 11h 11v -5.5a 5.5 5.5, 0, 0, 0, -5.5 -5.5" transform="rotate(90,139.5,40.5)"/><path d="M 134 68v 11h 5.5a 5.5 5.5, 0, 0, 0, 0 -11" transform="rotate(0,139.5,73.5)"/><circle cx="139.5" cy="95.5" r="5.5" transform="rotate(0,139.5,95.5)"/><path d="M 134 112v 11h 5.5a 5.5 5.5, 0, 0, 0, 0 -11" transform="rotate(-90,139.5,117.5)"/><rect x="134" y="123" width="11" height="11" transform="rotate(0,139.5,128.5)"/><path d="M 134 134v 11h 11v -5.5a 5.5 5.5, 0, 0, 0, -5.5 -5.5" transform="rotate(90,139.5,139.5)"/><circle cx="139.5" cy="161.5" r="5.5" transform="rotate(0,139.5,161.5)"/><circle cx="139.5" cy="183.5" r="5.5" transform="rotate(0,139.5,183.5)"/><path d="M 134 200v 11h 5.5a 5.5 5.5, 0, 0, 0, 0 -11" transform="rotate(-90,139.5,205.5)"/><rect x="134" y="211" width="11" height="11" transform="rotate(0,139.5,216.5)"/><rect x="134" y="222" width="11" height="11" transform="rotate(0,139.5,227.5)"/><path d="M 134 233v 11h 5.5a 5.5 5.5, 0, 0, 0, 0 -11" transform="rotate(90,139.5,238.5)"/><path d="M 134 255v 11h 11v -5.5a 5.5 5.5, 0, 0, 0, -5.5 -5.5" transform="rotate(0,139.5,260.5)"/><rect x="134" y="266" width="11" height="11" transform="rotate(0,139.5,271.5)"/><rect x="134" y="277" width="11" height="11" transform="rotate(0,139.5,282.5)"/><rect x="134" y="288" width="11" height="11" transform="rotate(0,139.5,293.5)"/><rect x="134" y="299" width="11" height="11" transform="rotate(0,139.5,304.5)"/><path d="M 134 310v 11h 11v -5.5a 5.5 5.5, 0, 0, 0, -5.5 -5.5" transform="rotate(90,139.5,315.5)"/><path d="M 134 354v 11h 11v -5.5a 5.5 5.5, 0, 0, 0, -5.5 -5.5" transform="rotate(0,139.5,359.5)"/><path d="M 134 365v 11h 5.5a 5.5 5.5, 0, 0, 0, 0 -11" transform="rotate(90,139.5,370.5)"/><path d="M 134 398v 11h 11v -5.5a 5.5 5.5, 0, 0, 0, -5.5 -5.5" transform="rotate(0,139.5,403.5)"/><rect x="134" y="409" width="11" height="11" transform="rotate(0,139.5,414.5)"/><rect x="134" y="420" width="11" height="11" transform="rotate(0,139.5,425.5)"/><rect x="134" y="431" width="11" height="11" transform="rotate(0,139.5,436.5)"/><rect x="134" y="442" width="11" height="11" transform="rotate(0,139.5,447.5)"/><path d="M 145 24v 11h 5.5a 5.5 5.5, 0, 0, 0, 0 -11" transform="rotate(0,150.5,29.5)"/><circle cx="150.5" cy="51.5" r="5.5" transform="rotate(0,150.5,51.5)"/><circle cx="150.5" cy="84.5" r="5.5" transform="rotate(0,150.5,84.5)"/><path d="M 145 123v 11h 5.5a 5.5 5.5, 0, 0, 0, 0 -11" transform="rotate(0,150.5,128.5)"/><circle cx="150.5" cy="194.5" r="5.5" transform="rotate(0,150.5,194.5)"/><path d="M 145 244v 11h 5.5a 5.5 5.5, 0, 0, 0, 0 -11" transform="rotate(180,150.5,249.5)"/><path d="M 145 288v 11h 11v -5.5a 5.5 5.5, 0, 0, 0, -5.5 -5.5" transform="rotate(0,150.5,293.5)"/><rect x="145" y="299" width="11" height="11" transform="rotate(0,150.5,304.5)"/><path d="M 145 332v 11h 5.5a 5.5 5.5, 0, 0, 0, 0 -11" transform="rotate(180,150.5,337.5)"/><path d="M 145 420v 11h 5.5a 5.5 5.5, 0, 0, 0, 0 -11" transform="rotate(0,150.5,425.5)"/><path d="M 145 442v 11h 11v -5.5a 5.5 5.5, 0, 0, 0, -5.5 -5.5" transform="rotate(0,150.5,447.5)"/><rect x="145" y="453" width="11" height="11" transform="rotate(0,150.5,458.5)"/><path d="M 145 464v 11h 11v -5.5a 5.5 5.5, 0, 0, 0, -5.5 -5.5" transform="rotate(180,150.5,469.5)"/><circle cx="161.5" cy="40.5" r="5.5" transform="rotate(0,161.5,40.5)"/><path d="M 156 90v 11h 5.5a 5.5 5.5, 0, 0, 0, 0 -11" transform="rotate(-90,161.5,95.5)"/><path d="M 156 101v 11h 5.5a 5.5 5.5, 0, 0, 0, 0 -11" transform="rotate(90,161.5,106.5)"/><path d="M 156 145v 11h 11v -5.5a 5.5 5.5, 0, 0, 0, -5.5 -5.5" transform="rotate(-90,161.5,150.5)"/><path d="M 156 156v 11h 5.5a 5.5 5.5, 0, 0, 0, 0 -11" transform="rotate(90,161.5,161.5)"/><path d="M 156 200v 11h 5.5a 5.5 5.5, 0, 0, 0, 0 -11" transform="rotate(-90,161.5,205.5)"/><path d="M 156 211v 11h 11v -5.5a 5.5 5.5, 0, 0, 0, -5.5 -5.5" transform="rotate(180,161.5,216.5)"/><path d="M 156 233v 11h 11v -5.5a 5.5 5.5, 0, 0, 0, -5.5 -5.5" transform="rotate(-90,161.5,238.5)"/><path d="M 156 244v 11h 11v -5.5a 5.5 5.5, 0, 0, 0, -5.5 -5.5" transform="rotate(90,161.5,249.5)"/><path d="M 156 266v 11h 11v -5.5a 5.5 5.5, 0, 0, 0, -5.5 -5.5" transform="rotate(-90,161.5,271.5)"/><path d="M 156 277v 11h 11v -5.5a 5.5 5.5, 0, 0, 0, -5.5 -5.5" transform="rotate(180,161.5,282.5)"/><rect x="156" y="299" width="11" height="11" transform="rotate(0,161.5,304.5)"/><path d="M 156 321v 11h 11v -5.5a 5.5 5.5, 0, 0, 0, -5.5 -5.5" transform="rotate(-90,161.5,326.5)"/><rect x="156" y="332" width="11" height="11" transform="rotate(0,161.5,337.5)"/><path d="M 156 343v 11h 5.5a 5.5 5.5, 0, 0, 0, 0 -11" transform="rotate(90,161.5,348.5)"/><path d="M 156 365v 11h 5.5a 5.5 5.5, 0, 0, 0, 0 -11" transform="rotate(180,161.5,370.5)"/><circle cx="161.5" cy="403.5" r="5.5" transform="rotate(0,161.5,403.5)"/><circle cx="161.5" cy="436.5" r="5.5" transform="rotate(0,161.5,436.5)"/><rect x="156" y="453" width="11" height="11" transform="rotate(0,161.5,458.5)"/><path d="M 156 464v 11h 11v -5.5a 5.5 5.5, 0, 0, 0, -5.5 -5.5" transform="rotate(90,161.5,469.5)"/><path d="M 167 46v 11h 11v -5.5a 5.5 5.5, 0, 0, 0, -5.5 -5.5" transform="rotate(-90,172.5,51.5)"/><path d="M 167 57v 11h 11v -5.5a 5.5 5.5, 0, 0, 0, -5.5 -5.5" transform="rotate(180,172.5,62.5)"/><circle cx="172.5" cy="84.5" r="5.5" transform="rotate(0,172.5,84.5)"/><path d="M 167 134v 11h 5.5a 5.5 5.5, 0, 0, 0, 0 -11" transform="rotate(-90,172.5,139.5)"/><rect x="167" y="145" width="11" height="11" transform="rotate(0,172.5,150.5)"/><path d="M 167 178v 11h 5.5a 5.5 5.5, 0, 0, 0, 0 -11" transform="rotate(180,172.5,183.5)"/><rect x="167" y="211" width="11" height="11" transform="rotate(0,172.5,216.5)"/><rect x="167" y="222" width="11" height="11" transform="rotate(0,172.5,227.5)"/><rect x="167" y="233" width="11" height="11" transform="rotate(0,172.5,238.5)"/><path d="M 167 266v 11h 11v -5.5a 5.5 5.5, 0, 0, 0, -5.5 -5.5" transform="rotate(0,172.5,271.5)"/><rect x="167" y="277" width="11" height="11" transform="rotate(0,172.5,282.5)"/><rect x="167" y="299" width="11" height="11" transform="rotate(0,172.5,304.5)"/><rect x="167" y="321" width="11" height="11" transform="rotate(0,172.5,326.5)"/><path d="M 167 354v 11h 5.5a 5.5 5.5, 0, 0, 0, 0 -11" transform="rotate(-90,172.5,359.5)"/><path d="M 167 365v 11h 11v -5.5a 5.5 5.5, 0, 0, 0, -5.5 -5.5" transform="rotate(90,172.5,370.5)"/><rect x="167" y="453" width="11" height="11" transform="rotate(0,172.5,458.5)"/><path d="M 178 46v 11h 11v -5.5a 5.5 5.5, 0, 0, 0, -5.5 -5.5" transform="rotate(0,183.5,51.5)"/><rect x="178" y="57" width="11" height="11" transform="rotate(0,183.5,62.5)"/><path d="M 178 68v 11h 5.5a 5.5 5.5, 0, 0, 0, 0 -11" transform="rotate(90,183.5,73.5)"/><path d="M 178 90v 11h 5.5a 5.5 5.5, 0, 0, 0, 0 -11" transform="rotate(-90,183.5,95.5)"/><rect x="178" y="101" width="11" height="11" transform="rotate(0,183.5,106.5)"/><rect x="178" y="112" width="11" height="11" transform="rotate(0,183.5,117.5)"/><path d="M 178 123v 11h 11v -5.5a 5.5 5.5, 0, 0, 0, -5.5 -5.5" transform="rotate(180,183.5,128.5)"/><path d="M 178 145v 11h 5.5a 5.5 5.5, 0, 0, 0, 0 -11" transform="rotate(0,183.5,150.5)"/><path d="M 178 167v 11h 5.5a 5.5 5.5, 0, 0, 0, 0 -11" transform="rotate(-90,183.5,172.5)"/><rect x="178" y="178" width="11" height="11" transform="rotate(0,183.5,183.5)"/><path d="M 178 200v 11h 11v -5.5a 5.5 5.5, 0, 0, 0, -5.5 -5.5" transform="rotate(-90,183.5,205.5)"/><rect x="178" y="211" width="11" height="11" transform="rotate(0,183.5,216.5)"/><rect x="178" y="233" width="11" height="11" transform="rotate(0,183.5,238.5)"/><rect x="178" y="244" width="11" height="11" transform="rotate(0,183.5,249.5)"/><path d="M 178 255v 11h 5.5a 5.5 5.5, 0, 0, 0, 0 -11" transform="rotate(90,183.5,260.5)"/><rect x="178" y="277" width="11" height="11" transform="rotate(0,183.5,282.5)"/><rect x="178" y="299" width="11" height="11" transform="rotate(0,183.5,304.5)"/><rect x="178" y="310" width="11" height="11" transform="rotate(0,183.5,315.5)"/><rect x="178" y="321" width="11" height="11" transform="rotate(0,183.5,326.5)"/><path d="M 178 332v 11h 11v -5.5a 5.5 5.5, 0, 0, 0, -5.5 -5.5" transform="rotate(180,183.5,337.5)"/><circle cx="183.5" cy="381.5" r="5.5" transform="rotate(0,183.5,381.5)"/><path d="M 178 398v 11h 5.5a 5.5 5.5, 0, 0, 0, 0 -11" transform="rotate(180,183.5,403.5)"/><path d="M 178 431v 11h 5.5a 5.5 5.5, 0, 0, 0, 0 -11" transform="rotate(-90,183.5,436.5)"/><rect x="178" y="442" width="11" height="11" transform="rotate(0,183.5,447.5)"/><rect x="178" y="453" width="11" height="11" transform="rotate(0,183.5,458.5)"/><path d="M 178 464v 11h 5.5a 5.5 5.5, 0, 0, 0, 0 -11" transform="rotate(90,183.5,469.5)"/><path d="M 189 24v 11h 5.5a 5.5 5.5, 0, 0, 0, 0 -11" transform="rotate(180,194.5,29.5)"/><rect x="189" y="57" width="11" height="11" transform="rotate(0,194.5,62.5)"/><path d="M 189 101v 11h 11v -5.5a 5.5 5.5, 0, 0, 0, -5.5 -5.5" transform="rotate(0,194.5,106.5)"/><rect x="189" y="112" width="11" height="11" transform="rotate(0,194.5,117.5)"/><path d="M 189 123v 11h 11v -5.5a 5.5 5.5, 0, 0, 0, -5.5 -5.5" transform="rotate(90,194.5,128.5)"/><circle cx="194.5" cy="161.5" r="5.5" transform="rotate(0,194.5,161.5)"/><rect x="189" y="178" width="11" height="11" transform="rotate(0,194.5,183.5)"/><rect x="189" y="200" width="11" height="11" transform="rotate(0,194.5,205.5)"/><rect x="189" y="211" width="11" height="11" transform="rotate(0,194.5,216.5)"/><rect x="189" y="222" width="11" height="11" transform="rotate(0,194.5,227.5)"/><path d="M 189 233v 11h 11v -5.5a 5.5 5.5, 0, 0, 0, -5.5 -5.5" transform="rotate(90,194.5,238.5)"/><path d="M 189 266v 11h 11v -5.5a 5.5 5.5, 0, 0, 0, -5.5 -5.5" transform="rotate(-90,194.5,271.5)"/><path d="M 189 277v 11h 11v -5.5a 5.5 5.5, 0, 0, 0, -5.5 -5.5" transform="rotate(90,194.5,282.5)"/><path d="M 189 299v 11h 5.5a 5.5 5.5, 0, 0, 0, 0 -11" transform="rotate(0,194.5,304.5)"/><path d="M 189 332v 11h 11v -5.5a 5.5 5.5, 0, 0, 0, -5.5 -5.5" transform="rotate(0,194.5,337.5)"/><path d="M 189 343v 11h 11v -5.5a 5.5 5.5, 0, 0, 0, -5.5 -5.5" transform="rotate(180,194.5,348.5)"/><path d="M 189 365v 11h 5.5a 5.5 5.5, 0, 0, 0, 0 -11" transform="rotate(180,194.5,370.5)"/><path d="M 189 398v 11h 5.5a 5.5 5.5, 0, 0, 0, 0 -11" transform="rotate(0,194.5,403.5)"/><circle cx="194.5" cy="425.5" r="5.5" transform="rotate(0,194.5,425.5)"/><rect x="189" y="453" width="11" height="11" transform="rotate(0,194.5,458.5)"/><path d="M 200 24v 11h 5.5a 5.5 5.5, 0, 0, 0, 0 -11" transform="rotate(0,205.5,29.5)"/><path d="M 200 57v 11h 5.5a 5.5 5.5, 0, 0, 0, 0 -11" transform="rotate(0,205.5,62.5)"/><path d="M 200 79v 11h 11v -5.5a 5.5 5.5, 0, 0, 0, -5.5 -5.5" transform="rotate(-90,205.5,84.5)"/><path d="M 200 90v 11h 5.5a 5.5 5.5, 0, 0, 0, 0 -11" transform="rotate(90,205.5,95.5)"/><path d="M 200 134v 11h 5.5a 5.5 5.5, 0, 0, 0, 0 -11" transform="rotate(180,205.5,139.5)"/><rect x="200" y="178" width="11" height="11" transform="rotate(0,205.5,183.5)"/><path d="M 200 200v 11h 5.5a 5.5 5.5, 0, 0, 0, 0 -11" transform="rotate(0,205.5,205.5)"/><path d="M 200 266v 11h 5.5a 5.5 5.5, 0, 0, 0, 0 -11" transform="rotate(0,205.5,271.5)"/><path d="M 200 288v 11h 5.5a 5.5 5.5, 0, 0, 0, 0 -11" transform="rotate(180,205.5,293.5)"/><circle cx="205.5" cy="326.5" r="5.5" transform="rotate(0,205.5,326.5)"/><path d="M 200 343v 11h 5.5a 5.5 5.5, 0, 0, 0, 0 -11" transform="rotate(0,205.5,348.5)"/><path d="M 200 365v 11h 11v -5.5a 5.5 5.5, 0, 0, 0, -5.5 -5.5" transform="rotate(0,205.5,370.5)"/><path d="M 200 376v 11h 5.5a 5.5 5.5, 0, 0, 0, 0 -11" transform="rotate(90,205.5,381.5)"/><path d="M 200 409v 11h 5.5a 5.5 5.5, 0, 0, 0, 0 -11" transform="rotate(180,205.5,414.5)"/><circle cx="205.5" cy="436.5" r="5.5" transform="rotate(0,205.5,436.5)"/><rect x="200" y="453" width="11" height="11" transform="rotate(0,205.5,458.5)"/><rect x="211" y="79" width="11" height="11" transform="rotate(0,216.5,84.5)"/><circle cx="216.5" cy="117.5" r="5.5" transform="rotate(0,216.5,117.5)"/><rect x="211" y="134" width="11" height="11" transform="rotate(0,216.5,139.5)"/><path d="M 211 178v 11h 11v -5.5a 5.5 5.5, 0, 0, 0, -5.5 -5.5" transform="rotate(0,216.5,183.5)"/><path d="M 211 189v 11h 11v -5.5a 5.5 5.5, 0, 0, 0, -5.5 -5.5" transform="rotate(180,216.5,194.5)"/><path d="M 211 222v 11h 11v -5.5a 5.5 5.5, 0, 0, 0, -5.5 -5.5" transform="rotate(-90,216.5,227.5)"/><path d="M 211 233v 11h 11v -5.5a 5.5 5.5, 0, 0, 0, -5.5 -5.5" transform="rotate(180,216.5,238.5)"/><path d="M 211 277v 11h 5.5a 5.5 5.5, 0, 0, 0, 0 -11" transform="rotate(-90,216.5,282.5)"/><path d="M 211 288v 11h 11v -5.5a 5.5 5.5, 0, 0, 0, -5.5 -5.5" transform="rotate(90,216.5,293.5)"/><circle cx="216.5" cy="337.5" r="5.5" transform="rotate(0,216.5,337.5)"/><path d="M 211 398v 11h 11v -5.5a 5.5 5.5, 0, 0, 0, -5.5 -5.5" transform="rotate(-90,216.5,403.5)"/><path d="M 211 409v 11h 11v -5.5a 5.5 5.5, 0, 0, 0, -5.5 -5.5" transform="rotate(90,216.5,414.5)"/><path d="M 211 442v 11h 11v -5.5a 5.5 5.5, 0, 0, 0, -5.5 -5.5" transform="rotate(-90,216.5,447.5)"/><rect x="211" y="453" width="11" height="11" transform="rotate(0,216.5,458.5)"/><path d="M 211 464v 11h 11v -5.5a 5.5 5.5, 0, 0, 0, -5.5 -5.5" transform="rotate(180,216.5,469.5)"/><path d="M 222 24v 11h 5.5a 5.5 5.5, 0, 0, 0, 0 -11" transform="rotate(180,227.5,29.5)"/><circle cx="227.5" cy="51.5" r="5.5" transform="rotate(0,227.5,51.5)"/><rect x="222" y="79" width="11" height="11" transform="rotate(0,227.5,84.5)"/><rect x="222" y="90" width="11" height="11" transform="rotate(0,227.5,95.5)"/><path d="M 222 101v 11h 11v -5.5a 5.5 5.5, 0, 0, 0, -5.5 -5.5" transform="rotate(180,227.5,106.5)"/><path d="M 222 134v 11h 11v -5.5a 5.5 5.5, 0, 0, 0, -5.5 -5.5" transform="rotate(0,227.5,139.5)"/><path d="M 222 145v 11h 5.5a 5.5 5.5, 0, 0, 0, 0 -11" transform="rotate(90,227.5,150.5)"/><path d="M 222 189v 11h 11v -5.5a 5.5 5.5, 0, 0, 0, -5.5 -5.5" transform="rotate(0,227.5,194.5)"/><path d="M 222 200v 11h 11v -5.5a 5.5 5.5, 0, 0, 0, -5.5 -5.5" transform="rotate(180,227.5,205.5)"/><path d="M 222 222v 11h 11v -5.5a 5.5 5.5, 0, 0, 0, -5.5 -5.5" transform="rotate(0,227.5,227.5)"/><rect x="222" y="233" width="11" height="11" transform="rotate(0,227.5,238.5)"/><path d="M 222 299v 11h 5.5a 5.5 5.5, 0, 0, 0, 0 -11" transform="rotate(180,227.5,304.5)"/><path d="M 222 343v 11h 11v -5.5a 5.5 5.5, 0, 0, 0, -5.5 -5.5" transform="rotate(-90,227.5,348.5)"/><path d="M 222 354v 11h 5.5a 5.5 5.5, 0, 0, 0, 0 -11" transform="rotate(90,227.5,359.5)"/><path d="M 222 387v 11h 5.5a 5.5 5.5, 0, 0, 0, 0 -11" transform="rotate(-90,227.5,392.5)"/><path d="M 222 398v 11h 11v -5.5a 5.5 5.5, 0, 0, 0, -5.5 -5.5" transform="rotate(90,227.5,403.5)"/><path d="M 222 420v 11h 5.5a 5.5 5.5, 0, 0, 0, 0 -11" transform="rotate(-90,227.5,425.5)"/><rect x="222" y="431" width="11" height="11" transform="rotate(0,227.5,436.5)"/><rect x="222" y="442" width="11" height="11" transform="rotate(0,227.5,447.5)"/><rect x="222" y="453" width="11" height="11" transform="rotate(0,227.5,458.5)"/><path d="M 222 464v 11h 11v -5.5a 5.5 5.5, 0, 0, 0, -5.5 -5.5" transform="rotate(90,227.5,469.5)"/><rect x="233" y="24" width="11" height="11" transform="rotate(0,238.5,29.5)"/><path d="M 233 35v 11h 5.5a 5.5 5.5, 0, 0, 0, 0 -11" transform="rotate(90,238.5,40.5)"/><path d="M 233 68v 11h 11v -5.5a 5.5 5.5, 0, 0, 0, -5.5 -5.5" transform="rotate(-90,238.5,73.5)"/><rect x="233" y="79" width="11" height="11" transform="rotate(0,238.5,84.5)"/><rect x="233" y="101" width="11" height="11" transform="rotate(0,238.5,106.5)"/><path d="M 233 112v 11h 5.5a 5.5 5.5, 0, 0, 0, 0 -11" transform="rotate(90,238.5,117.5)"/><circle cx="238.5" cy="161.5" r="5.5" transform="rotate(0,238.5,161.5)"/><circle cx="238.5" cy="183.5" r="5.5" transform="rotate(0,238.5,183.5)"/><rect x="233" y="200" width="11" height="11" transform="rotate(0,238.5,205.5)"/><path d="M 233 211v 11h 5.5a 5.5 5.5, 0, 0, 0, 0 -11" transform="rotate(90,238.5,216.5)"/><rect x="233" y="233" width="11" height="11" transform="rotate(0,238.5,238.5)"/><circle cx="238.5" cy="260.5" r="5.5" transform="rotate(0,238.5,260.5)"/><circle cx="238.5" cy="282.5" r="5.5" transform="rotate(0,238.5,282.5)"/><path d="M 233 299v 11h 5.5a 5.5 5.5, 0, 0, 0, 0 -11" transform="rotate(0,238.5,304.5)"/><rect x="233" y="343" width="11" height="11" transform="rotate(0,238.5,348.5)"/><circle cx="238.5" cy="381.5" r="5.5" transform="rotate(0,238.5,381.5)"/><circle cx="238.5" cy="414.5" r="5.5" transform="rotate(0,238.5,414.5)"/><path d="M 233 431v 11h 5.5a 5.5 5.5, 0, 0, 0, 0 -11" transform="rotate(0,238.5,436.5)"/><rect x="233" y="453" width="11" height="11" transform="rotate(0,238.5,458.5)"/><path d="M 244 24v 11h 5.5a 5.5 5.5, 0, 0, 0, 0 -11" transform="rotate(0,249.5,29.5)"/><path d="M 244 46v 11h 5.5a 5.5 5.5, 0, 0, 0, 0 -11" transform="rotate(-90,249.5,51.5)"/><rect x="244" y="57" width="11" height="11" transform="rotate(0,249.5,62.5)"/><rect x="244" y="68" width="11" height="11" transform="rotate(0,249.5,73.5)"/><rect x="244" y="79" width="11" height="11" transform="rotate(0,249.5,84.5)"/><rect x="244" y="90" width="11" height="11" transform="rotate(0,249.5,95.5)"/><path d="M 244 101v 11h 11v -5.5a 5.5 5.5, 0, 0, 0, -5.5 -5.5" transform="rotate(90,249.5,106.5)"/><circle cx="249.5" cy="128.5" r="5.5" transform="rotate(0,249.5,128.5)"/><circle cx="249.5" cy="172.5" r="5.5" transform="rotate(0,249.5,172.5)"/><path d="M 244 189v 11h 11v -5.5a 5.5 5.5, 0, 0, 0, -5.5 -5.5" transform="rotate(-90,249.5,194.5)"/><rect x="244" y="200" width="11" height="11" transform="rotate(0,249.5,205.5)"/><path d="M 244 222v 11h 11v -5.5a 5.5 5.5, 0, 0, 0, -5.5 -5.5" transform="rotate(-90,249.5,227.5)"/><rect x="244" y="233" width="11" height="11" transform="rotate(0,249.5,238.5)"/><path d="M 244 288v 11h 5.5a 5.5 5.5, 0, 0, 0, 0 -11" transform="rotate(180,249.5,293.5)"/><path d="M 244 310v 11h 5.5a 5.5 5.5, 0, 0, 0, 0 -11" transform="rotate(-90,249.5,315.5)"/><rect x="244" y="321" width="11" height="11" transform="rotate(0,249.5,326.5)"/><rect x="244" y="332" width="11" height="11" transform="rotate(0,249.5,337.5)"/><rect x="244" y="343" width="11" height="11" transform="rotate(0,249.5,348.5)"/><rect x="244" y="354" width="11" height="11" transform="rotate(0,249.5,359.5)"/><path d="M 244 365v 11h 5.5a 5.5 5.5, 0, 0, 0, 0 -11" transform="rotate(90,249.5,370.5)"/><path d="M 244 387v 11h 11v -5.5a 5.5 5.5, 0, 0, 0, -5.5 -5.5" transform="rotate(-90,249.5,392.5)"/><path d="M 244 398v 11h 11v -5.5a 5.5 5.5, 0, 0, 0, -5.5 -5.5" transform="rotate(180,249.5,403.5)"/><path d="M 244 442v 11h 5.5a 5.5 5.5, 0, 0, 0, 0 -11" transform="rotate(-90,249.5,447.5)"/><rect x="244" y="453" width="11" height="11" transform="rotate(0,249.5,458.5)"/><path d="M 255 79v 11h 5.5a 5.5 5.5, 0, 0, 0, 0 -11" transform="rotate(0,260.5,84.5)"/><path d="M 255 112v 11h 5.5a 5.5 5.5, 0, 0, 0, 0 -11" transform="rotate(180,260.5,117.5)"/><path d="M 255 145v 11h 11v -5.5a 5.5 5.5, 0, 0, 0, -5.5 -5.5" transform="rotate(-90,260.5,150.5)"/><path d="M 255 156v 11h 11v -5.5a 5.5 5.5, 0, 0, 0, -5.5 -5.5" transform="rotate(180,260.5,161.5)"/><path d="M 255 178v 11h 11v -5.5a 5.5 5.5, 0, 0, 0, -5.5 -5.5" transform="rotate(-90,260.5,183.5)"/><rect x="255" y="189" width="11" height="11" transform="rotate(0,260.5,194.5)"/><path d="M 255 200v 11h 11v -5.5a 5.5 5.5, 0, 0, 0, -5.5 -5.5" transform="rotate(90,260.5,205.5)"/><path d="M 255 222v 11h 11v -5.5a 5.5 5.5, 0, 0, 0, -5.5 -5.5" transform="rotate(0,260.5,227.5)"/><rect x="255" y="233" width="11" height="11" transform="rotate(0,260.5,238.5)"/><path d="M 255 244v 11h 11v -5.5a 5.5 5.5, 0, 0, 0, -5.5 -5.5" transform="rotate(180,260.5,249.5)"/><path d="M 255 266v 11h 5.5a 5.5 5.5, 0, 0, 0, 0 -11" transform="rotate(180,260.5,271.5)"/><path d="M 255 288v 11h 11v -5.5a 5.5 5.5, 0, 0, 0, -5.5 -5.5" transform="rotate(0,260.5,293.5)"/><path d="M 255 299v 11h 11v -5.5a 5.5 5.5, 0, 0, 0, -5.5 -5.5" transform="rotate(180,260.5,304.5)"/><rect x="255" y="332" width="11" height="11" transform="rotate(0,260.5,337.5)"/><path d="M 255 343v 11h 11v -5.5a 5.5 5.5, 0, 0, 0, -5.5 -5.5" transform="rotate(90,260.5,348.5)"/><path d="M 255 376v 11h 5.5a 5.5 5.5, 0, 0, 0, 0 -11" transform="rotate(-90,260.5,381.5)"/><rect x="255" y="387" width="11" height="11" transform="rotate(0,260.5,392.5)"/><rect x="255" y="398" width="11" height="11" transform="rotate(0,260.5,403.5)"/><path d="M 255 409v 11h 5.5a 5.5 5.5, 0, 0, 0, 0 -11" transform="rotate(90,260.5,414.5)"/><rect x="255" y="453" width="11" height="11" transform="rotate(0,260.5,458.5)"/><path d="M 255 464v 11h 5.5a 5.5 5.5, 0, 0, 0, 0 -11" transform="rotate(90,260.5,469.5)"/><path d="M 266 57v 11h 11v -5.5a 5.5 5.5, 0, 0, 0, -5.5 -5.5" transform="rotate(-90,271.5,62.5)"/><path d="M 266 68v 11h 11v -5.5a 5.5 5.5, 0, 0, 0, -5.5 -5.5" transform="rotate(180,271.5,73.5)"/><circle cx="271.5" cy="95.5" r="5.5" transform="rotate(0,271.5,95.5)"/><rect x="266" y="112" width="11" height="11" transform="rotate(0,271.5,117.5)"/><path d="M 266 134v 11h 5.5a 5.5 5.5, 0, 0, 0, 0 -11" transform="rotate(-90,271.5,139.5)"/><rect x="266" y="145" width="11" height="11" transform="rotate(0,271.5,150.5)"/><rect x="266" y="156" width="11" height="11" transform="rotate(0,271.5,161.5)"/><rect x="266" y="167" width="11" height="11" transform="rotate(0,271.5,172.5)"/><rect x="266" y="178" width="11" height="11" transform="rotate(0,271.5,183.5)"/><path d="M 266 189v 11h 11v -5.5a 5.5 5.5, 0, 0, 0, -5.5 -5.5" transform="rotate(90,271.5,194.5)"/><path d="M 266 233v 11h 11v -5.5a 5.5 5.5, 0, 0, 0, -5.5 -5.5" transform="rotate(0,271.5,238.5)"/><rect x="266" y="244" width="11" height="11" transform="rotate(0,271.5,249.5)"/><rect x="266" y="255" width="11" height="11" transform="rotate(0,271.5,260.5)"/><path d="M 266 266v 11h 11v -5.5a 5.5 5.5, 0, 0, 0, -5.5 -5.5" transform="rotate(90,271.5,271.5)"/><rect x="266" y="299" width="11" height="11" transform="rotate(0,271.5,304.5)"/><path d="M 266 310v 11h 11v -5.5a 5.5 5.5, 0, 0, 0, -5.5 -5.5" transform="rotate(180,271.5,315.5)"/><rect x="266" y="332" width="11" height="11" transform="rotate(0,271.5,337.5)"/><path d="M 266 354v 11h 5.5a 5.5 5.5, 0, 0, 0, 0 -11" transform="rotate(-90,271.5,359.5)"/><path d="M 266 365v 11h 5.5a 5.5 5.5, 0, 0, 0, 0 -11" transform="rotate(90,271.5,370.5)"/><rect x="266" y="387" width="11" height="11" transform="rotate(0,271.5,392.5)"/><path d="M 266 420v 11h 5.5a 5.5 5.5, 0, 0, 0, 0 -11" transform="rotate(-90,271.5,425.5)"/><rect x="266" y="431" width="11" height="11" transform="rotate(0,271.5,436.5)"/><rect x="266" y="442" width="11" height="11" transform="rotate(0,271.5,447.5)"/><rect x="266" y="453" width="11" height="11" transform="rotate(0,271.5,458.5)"/><path d="M 277 24v 11h 5.5a 5.5 5.5, 0, 0, 0, 0 -11" transform="rotate(-90,282.5,29.5)"/><rect x="277" y="35" width="11" height="11" transform="rotate(0,282.5,40.5)"/><rect x="277" y="46" width="11" height="11" transform="rotate(0,282.5,51.5)"/><rect x="277" y="57" width="11" height="11" transform="rotate(0,282.5,62.5)"/><rect x="277" y="68" width="11" height="11" transform="rotate(0,282.5,73.5)"/><path d="M 277 79v 11h 11v -5.5a 5.5 5.5, 0, 0, 0, -5.5 -5.5" transform="rotate(180,282.5,84.5)"/><path d="M 277 112v 11h 11v -5.5a 5.5 5.5, 0, 0, 0, -5.5 -5.5" transform="rotate(0,282.5,117.5)"/><path d="M 277 123v 11h 5.5a 5.5 5.5, 0, 0, 0, 0 -11" transform="rotate(90,282.5,128.5)"/><rect x="277" y="145" width="11" height="11" transform="rotate(0,282.5,150.5)"/><rect x="277" y="156" width="11" height="11" transform="rotate(0,282.5,161.5)"/><rect x="277" y="167" width="11" height="11" transform="rotate(0,282.5,172.5)"/><path d="M 277 211v 11h 5.5a 5.5 5.5, 0, 0, 0, 0 -11" transform="rotate(-90,282.5,216.5)"/><path d="M 277 222v 11h 5.5a 5.5 5.5, 0, 0, 0, 0 -11" transform="rotate(90,282.5,227.5)"/><path d="M 277 255v 11h 5.5a 5.5 5.5, 0, 0, 0, 0 -11" transform="rotate(0,282.5,260.5)"/><path d="M 277 288v 11h 11v -5.5a 5.5 5.5, 0, 0, 0, -5.5 -5.5" transform="rotate(-90,282.5,293.5)"/><rect x="277" y="299" width="11" height="11" transform="rotate(0,282.5,304.5)"/><rect x="277" y="310" width="11" height="11" transform="rotate(0,282.5,315.5)"/><rect x="277" y="321" width="11" height="11" transform="rotate(0,282.5,326.5)"/><rect x="277" y="332" width="11" height="11" transform="rotate(0,282.5,337.5)"/><rect x="277" y="387" width="11" height="11" transform="rotate(0,282.5,392.5)"/><rect x="277" y="431" width="11" height="11" transform="rotate(0,282.5,436.5)"/><rect x="277" y="442" width="11" height="11" transform="rotate(0,282.5,447.5)"/><rect x="277" y="453" width="11" height="11" transform="rotate(0,282.5,458.5)"/><path d="M 277 464v 11h 11v -5.5a 5.5 5.5, 0, 0, 0, -5.5 -5.5" transform="rotate(180,282.5,469.5)"/><path d="M 288 35v 11h 5.5a 5.5 5.5, 0, 0, 0, 0 -11" transform="rotate(0,293.5,40.5)"/><path d="M 288 57v 11h 5.5a 5.5 5.5, 0, 0, 0, 0 -11" transform="rotate(0,293.5,62.5)"/><path d="M 288 79v 11h 11v -5.5a 5.5 5.5, 0, 0, 0, -5.5 -5.5" transform="rotate(0,293.5,84.5)"/><path d="M 288 90v 11h 5.5a 5.5 5.5, 0, 0, 0, 0 -11" transform="rotate(90,293.5,95.5)"/><path d="M 288 134v 11h 5.5a 5.5 5.5, 0, 0, 0, 0 -11" transform="rotate(-90,293.5,139.5)"/><rect x="288" y="145" width="11" height="11" transform="rotate(0,293.5,150.5)"/><rect x="288" y="167" width="11" height="11" transform="rotate(0,293.5,172.5)"/><circle cx="293.5" cy="205.5" r="5.5" transform="rotate(0,293.5,205.5)"/><path d="M 288 266v 11h 11v -5.5a 5.5 5.5, 0, 0, 0, -5.5 -5.5" transform="rotate(-90,293.5,271.5)"/><rect x="288" y="277" width="11" height="11" transform="rotate(0,293.5,282.5)"/><rect x="288" y="288" width="11" height="11" transform="rotate(0,293.5,293.5)"/><path d="M 288 299v 11h 11v -5.5a 5.5 5.5, 0, 0, 0, -5.5 -5.5" transform="rotate(90,293.5,304.5)"/><rect x="288" y="332" width="11" height="11" transform="rotate(0,293.5,337.5)"/><path d="M 288 343v 11h 11v -5.5a 5.5 5.5, 0, 0, 0, -5.5 -5.5" transform="rotate(180,293.5,348.5)"/><path d="M 288 365v 11h 11v -5.5a 5.5 5.5, 0, 0, 0, -5.5 -5.5" transform="rotate(-90,293.5,370.5)"/><rect x="288" y="376" width="11" height="11" transform="rotate(0,293.5,381.5)"/><rect x="288" y="387" width="11" height="11" transform="rotate(0,293.5,392.5)"/><path d="M 288 398v 11h 5.5a 5.5 5.5, 0, 0, 0, 0 -11" transform="rotate(90,293.5,403.5)"/><rect x="288" y="431" width="11" height="11" transform="rotate(0,293.5,436.5)"/><path d="M 288 464v 11h 5.5a 5.5 5.5, 0, 0, 0, 0 -11" transform="rotate(0,293.5,469.5)"/><path d="M 299 24v 11h 5.5a 5.5 5.5, 0, 0, 0, 0 -11" transform="rotate(180,304.5,29.5)"/><path d="M 299 46v 11h 5.5a 5.5 5.5, 0, 0, 0, 0 -11" transform="rotate(180,304.5,51.5)"/><path d="M 299 68v 11h 5.5a 5.5 5.5, 0, 0, 0, 0 -11" transform="rotate(180,304.5,73.5)"/><path d="M 299 123v 11h 5.5a 5.5 5.5, 0, 0, 0, 0 -11" transform="rotate(180,304.5,128.5)"/><path d="M 299 145v 11h 5.5a 5.5 5.5, 0, 0, 0, 0 -11" transform="rotate(0,304.5,150.5)"/><rect x="299" y="167" width="11" height="11" transform="rotate(0,304.5,172.5)"/><rect x="299" y="178" width="11" height="11" transform="rotate(0,304.5,183.5)"/><path d="M 299 189v 11h 11v -5.5a 5.5 5.5, 0, 0, 0, -5.5 -5.5" transform="rotate(180,304.5,194.5)"/><path d="M 299 211v 11h 5.5a 5.5 5.5, 0, 0, 0, 0 -11" transform="rotate(-90,304.5,216.5)"/><rect x="299" y="222" width="11" height="11" transform="rotate(0,304.5,227.5)"/><path d="M 299 233v 11h 11v -5.5a 5.5 5.5, 0, 0, 0, -5.5 -5.5" transform="rotate(180,304.5,238.5)"/><rect x="299" y="266" width="11" height="11" transform="rotate(0,304.5,271.5)"/><rect x="299" y="288" width="11" height="11" transform="rotate(0,304.5,293.5)"/><path d="M 299 310v 11h 5.5a 5.5 5.5, 0, 0, 0, 0 -11" transform="rotate(180,304.5,315.5)"/><path d="M 299 332v 11h 11v -5.5a 5.5 5.5, 0, 0, 0, -5.5 -5.5" transform="rotate(0,304.5,337.5)"/><rect x="299" y="343" width="11" height="11" transform="rotate(0,304.5,348.5)"/><rect x="299" y="354" width="11" height="11" transform="rotate(0,304.5,359.5)"/><path d="M 299 365v 11h 11v -5.5a 5.5 5.5, 0, 0, 0, -5.5 -5.5" transform="rotate(90,304.5,370.5)"/><path d="M 299 431v 11h 5.5a 5.5 5.5, 0, 0, 0, 0 -11" transform="rotate(0,304.5,436.5)"/><rect x="310" y="24" width="11" height="11" transform="rotate(0,315.5,29.5)"/><rect x="310" y="46" width="11" height="11" transform="rotate(0,315.5,51.5)"/><rect x="310" y="68" width="11" height="11" transform="rotate(0,315.5,73.5)"/><rect x="310" y="79" width="11" height="11" transform="rotate(0,315.5,84.5)"/><path d="M 310 90v 11h 5.5a 5.5 5.5, 0, 0, 0, 0 -11" transform="rotate(90,315.5,95.5)"/><path d="M 310 123v 11h 5.5a 5.5 5.5, 0, 0, 0, 0 -11" transform="rotate(0,315.5,128.5)"/><path d="M 310 167v 11h 11v -5.5a 5.5 5.5, 0, 0, 0, -5.5 -5.5" transform="rotate(0,315.5,172.5)"/><rect x="310" y="178" width="11" height="11" transform="rotate(0,315.5,183.5)"/><rect x="310" y="189" width="11" height="11" transform="rotate(0,315.5,194.5)"/><path d="M 310 200v 11h 11v -5.5a 5.5 5.5, 0, 0, 0, -5.5 -5.5" transform="rotate(180,315.5,205.5)"/><path d="M 310 233v 11h 5.5a 5.5 5.5, 0, 0, 0, 0 -11" transform="rotate(0,315.5,238.5)"/><path d="M 310 255v 11h 5.5a 5.5 5.5, 0, 0, 0, 0 -11" transform="rotate(-90,315.5,260.5)"/><rect x="310" y="266" width="11" height="11" transform="rotate(0,315.5,271.5)"/><rect x="310" y="277" width="11" height="11" transform="rotate(0,315.5,282.5)"/><rect x="310" y="288" width="11" height="11" transform="rotate(0,315.5,293.5)"/><rect x="310" y="299" width="11" height="11" transform="rotate(0,315.5,304.5)"/><path d="M 310 310v 11h 11v -5.5a 5.5 5.5, 0, 0, 0, -5.5 -5.5" transform="rotate(90,315.5,315.5)"/><rect x="310" y="343" width="11" height="11" transform="rotate(0,315.5,348.5)"/><path d="M 310 354v 11h 11v -5.5a 5.5 5.5, 0, 0, 0, -5.5 -5.5" transform="rotate(90,315.5,359.5)"/><path d="M 310 376v 11h 11v -5.5a 5.5 5.5, 0, 0, 0, -5.5 -5.5" transform="rotate(-90,315.5,381.5)"/><rect x="310" y="387" width="11" height="11" transform="rotate(0,315.5,392.5)"/><rect x="310" y="398" width="11" height="11" transform="rotate(0,315.5,403.5)"/><rect x="310" y="409" width="11" height="11" transform="rotate(0,315.5,414.5)"/><path d="M 310 420v 11h 5.5a 5.5 5.5, 0, 0, 0, 0 -11" transform="rotate(90,315.5,425.5)"/><circle cx="315.5" cy="469.5" r="5.5" transform="rotate(0,315.5,469.5)"/><path d="M 321 24v 11h 5.5a 5.5 5.5, 0, 0, 0, 0 -11" transform="rotate(0,326.5,29.5)"/><path d="M 321 46v 11h 11v -5.5a 5.5 5.5, 0, 0, 0, -5.5 -5.5" transform="rotate(0,326.5,51.5)"/><rect x="321" y="57" width="11" height="11" transform="rotate(0,326.5,62.5)"/><rect x="321" y="68" width="11" height="11" transform="rotate(0,326.5,73.5)"/><rect x="321" y="79" width="11" height="11" transform="rotate(0,326.5,84.5)"/><circle cx="326.5" cy="106.5" r="5.5" transform="rotate(0,326.5,106.5)"/><path d="M 321 156v 11h 5.5a 5.5 5.5, 0, 0, 0, 0 -11" transform="rotate(180,326.5,161.5)"/><rect x="321" y="189" width="11" height="11" transform="rotate(0,326.5,194.5)"/><rect x="321" y="200" width="11" height="11" transform="rotate(0,326.5,205.5)"/><path d="M 321 211v 11h 5.5a 5.5 5.5, 0, 0, 0, 0 -11" transform="rotate(90,326.5,216.5)"/><circle cx="326.5" cy="249.5" r="5.5" transform="rotate(0,326.5,249.5)"/><rect x="321" y="277" width="11" height="11" transform="rotate(0,326.5,282.5)"/><rect x="321" y="288" width="11" height="11" transform="rotate(0,326.5,293.5)"/><path d="M 321 299v 11h 11v -5.5a 5.5 5.5, 0, 0, 0, -5.5 -5.5" transform="rotate(90,326.5,304.5)"/><rect x="321" y="343" width="11" height="11" transform="rotate(0,326.5,348.5)"/><path d="M 321 376v 11h 5.5a 5.5 5.5, 0, 0, 0, 0 -11" transform="rotate(0,326.5,381.5)"/><path d="M 321 453v 11h 5.5a 5.5 5.5, 0, 0, 0, 0 -11" transform="rotate(180,326.5,458.5)"/><rect x="332" y="57" width="11" height="11" transform="rotate(0,337.5,62.5)"/><path d="M 332 79v 11h 11v -5.5a 5.5 5.5, 0, 0, 0, -5.5 -5.5" transform="rotate(0,337.5,84.5)"/><path d="M 332 90v 11h 5.5a 5.5 5.5, 0, 0, 0, 0 -11" transform="rotate(90,337.5,95.5)"/><circle cx="337.5" cy="139.5" r="5.5" transform="rotate(0,337.5,139.5)"/><path d="M 332 156v 11h 5.5a 5.5 5.5, 0, 0, 0, 0 -11" transform="rotate(0,337.5,161.5)"/><path d="M 332 189v 11h 5.5a 5.5 5.5, 0, 0, 0, 0 -11" transform="rotate(0,337.5,194.5)"/><path d="M 332 255v 11h 5.5a 5.5 5.5, 0, 0, 0, 0 -11" transform="rotate(180,337.5,260.5)"/><path d="M 332 277v 11h 11v -5.5a 5.5 5.5, 0, 0, 0, -5.5 -5.5" transform="rotate(0,337.5,282.5)"/><rect x="332" y="288" width="11" height="11" transform="rotate(0,337.5,293.5)"/><path d="M 332 332v 11h 5.5a 5.5 5.5, 0, 0, 0, 0 -11" transform="rotate(-90,337.5,337.5)"/><rect x="332" y="343" width="11" height="11" transform="rotate(0,337.5,348.5)"/><path d="M 332 354v 11h 5.5a 5.5 5.5, 0, 0, 0, 0 -11" transform="rotate(90,337.5,359.5)"/><rect x="332" y="453" width="11" height="11" transform="rotate(0,337.5,458.5)"/><path d="M 343 46v 11h 5.5a 5.5 5.5, 0, 0, 0, 0 -11" transform="rotate(-90,348.5,51.5)"/><rect x="343" y="57" width="11" height="11" transform="rotate(0,348.5,62.5)"/><path d="M 343 68v 11h 11v -5.5a 5.5 5.5, 0, 0, 0, -5.5 -5.5" transform="rotate(180,348.5,73.5)"/><circle cx="348.5" cy="128.5" r="5.5" transform="rotate(0,348.5,128.5)"/><path d="M 343 167v 11h 11v -5.5a 5.5 5.5, 0, 0, 0, -5.5 -5.5" transform="rotate(-90,348.5,172.5)"/><path d="M 343 178v 11h 5.5a 5.5 5.5, 0, 0, 0, 0 -11" transform="rotate(90,348.5,183.5)"/><path d="M 343 211v 11h 5.5a 5.5 5.5, 0, 0, 0, 0 -11" transform="rotate(180,348.5,216.5)"/><path d="M 343 255v 11h 5.5a 5.5 5.5, 0, 0, 0, 0 -11" transform="rotate(0,348.5,260.5)"/><rect x="343" y="288" width="11" height="11" transform="rotate(0,348.5,293.5)"/><rect x="343" y="299" width="11" height="11" transform="rotate(0,348.5,304.5)"/><rect x="343" y="310" width="11" height="11" transform="rotate(0,348.5,315.5)"/><path d="M 343 321v 11h 5.5a 5.5 5.5, 0, 0, 0, 0 -11" transform="rotate(90,348.5,326.5)"/><path d="M 343 376v 11h 5.5a 5.5 5.5, 0, 0, 0, 0 -11" transform="rotate(180,348.5,381.5)"/><circle cx="348.5" cy="403.5" r="5.5" transform="rotate(0,348.5,403.5)"/><rect x="343" y="453" width="11" height="11" transform="rotate(0,348.5,458.5)"/><path d="M 343 464v 11h 11v -5.5a 5.5 5.5, 0, 0, 0, -5.5 -5.5" transform="rotate(180,348.5,469.5)"/><circle cx="359.5" cy="29.5" r="5.5" transform="rotate(0,359.5,29.5)"/><path d="M 354 68v 11h 5.5a 5.5 5.5, 0, 0, 0, 0 -11" transform="rotate(0,359.5,73.5)"/><circle cx="359.5" cy="95.5" r="5.5" transform="rotate(0,359.5,95.5)"/><path d="M 354 145v 11h 5.5a 5.5 5.5, 0, 0, 0, 0 -11" transform="rotate(180,359.5,150.5)"/><rect x="354" y="167" width="11" height="11" transform="rotate(0,359.5,172.5)"/><path d="M 354 211v 11h 5.5a 5.5 5.5, 0, 0, 0, 0 -11" transform="rotate(0,359.5,216.5)"/><circle cx="359.5" cy="249.5" r="5.5" transform="rotate(0,359.5,249.5)"/><path d="M 354 266v 11h 11v -5.5a 5.5 5.5, 0, 0, 0, -5.5 -5.5" transform="rotate(-90,359.5,271.5)"/><rect x="354" y="277" width="11" height="11" transform="rotate(0,359.5,282.5)"/><rect x="354" y="288" width="11" height="11" transform="rotate(0,359.5,293.5)"/><rect x="354" y="376" width="11" height="11" transform="rotate(0,359.5,381.5)"/><path d="M 354 409v 11h 5.5a 5.5 5.5, 0, 0, 0, 0 -11" transform="rotate(-90,359.5,414.5)"/><rect x="354" y="420" width="11" height="11" transform="rotate(0,359.5,425.5)"/><path d="M 354 431v 11h 11v -5.5a 5.5 5.5, 0, 0, 0, -5.5 -5.5" transform="rotate(180,359.5,436.5)"/><path d="M 354 453v 11h 11v -5.5a 5.5 5.5, 0, 0, 0, -5.5 -5.5" transform="rotate(0,359.5,458.5)"/><rect x="354" y="464" width="11" height="11" transform="rotate(0,359.5,469.5)"/><path d="M 365 46v 11h 5.5a 5.5 5.5, 0, 0, 0, 0 -11" transform="rotate(180,370.5,51.5)"/><path d="M 365 79v 11h 5.5a 5.5 5.5, 0, 0, 0, 0 -11" transform="rotate(180,370.5,84.5)"/><circle cx="370.5" cy="106.5" r="5.5" transform="rotate(0,370.5,106.5)"/><path d="M 365 134v 11h 5.5a 5.5 5.5, 0, 0, 0, 0 -11" transform="rotate(-90,370.5,139.5)"/><rect x="365" y="145" width="11" height="11" transform="rotate(0,370.5,150.5)"/><rect x="365" y="167" width="11" height="11" transform="rotate(0,370.5,172.5)"/><path d="M 365 200v 11h 5.5a 5.5 5.5, 0, 0, 0, 0 -11" transform="rotate(180,370.5,205.5)"/><path d="M 365 222v 11h 11v -5.5a 5.5 5.5, 0, 0, 0, -5.5 -5.5" transform="rotate(-90,370.5,227.5)"/><path d="M 365 233v 11h 5.5a 5.5 5.5, 0, 0, 0, 0 -11" transform="rotate(90,370.5,238.5)"/><path d="M 365 255v 11h 11v -5.5a 5.5 5.5, 0, 0, 0, -5.5 -5.5" transform="rotate(-90,370.5,260.5)"/><rect x="365" y="266" width="11" height="11" transform="rotate(0,370.5,271.5)"/><rect x="365" y="288" width="11" height="11" transform="rotate(0,370.5,293.5)"/><path d="M 365 321v 11h 5.5a 5.5 5.5, 0, 0, 0, 0 -11" transform="rotate(-90,370.5,326.5)"/><rect x="365" y="332" width="11" height="11" transform="rotate(0,370.5,337.5)"/><path d="M 365 343v 11h 5.5a 5.5 5.5, 0, 0, 0, 0 -11" transform="rotate(90,370.5,348.5)"/><rect x="365" y="376" width="11" height="11" transform="rotate(0,370.5,381.5)"/><path d="M 365 387v 11h 11v -5.5a 5.5 5.5, 0, 0, 0, -5.5 -5.5" transform="rotate(180,370.5,392.5)"/><rect x="365" y="420" width="11" height="11" transform="rotate(0,370.5,425.5)"/><path d="M 365 431v 11h 11v -5.5a 5.5 5.5, 0, 0, 0, -5.5 -5.5" transform="rotate(90,370.5,436.5)"/><path d="M 365 464v 11h 5.5a 5.5 5.5, 0, 0, 0, 0 -11" transform="rotate(0,370.5,469.5)"/><circle cx="381.5" cy="29.5" r="5.5" transform="rotate(0,381.5,29.5)"/><path d="M 376 46v 11h 5.5a 5.5 5.5, 0, 0, 0, 0 -11" transform="rotate(0,381.5,51.5)"/><path d="M 376 79v 11h 11v -5.5a 5.5 5.5, 0, 0, 0, -5.5 -5.5" transform="rotate(0,381.5,84.5)"/><path d="M 376 90v 11h 5.5a 5.5 5.5, 0, 0, 0, 0 -11" transform="rotate(90,381.5,95.5)"/><path d="M 376 145v 11h 11v -5.5a 5.5 5.5, 0, 0, 0, -5.5 -5.5" transform="rotate(0,381.5,150.5)"/><rect x="376" y="156" width="11" height="11" transform="rotate(0,381.5,161.5)"/><rect x="376" y="167" width="11" height="11" transform="rotate(0,381.5,172.5)"/><path d="M 376 178v 11h 11v -5.5a 5.5 5.5, 0, 0, 0, -5.5 -5.5" transform="rotate(180,381.5,183.5)"/><path d="M 376 200v 11h 5.5a 5.5 5.5, 0, 0, 0, 0 -11" transform="rotate(0,381.5,205.5)"/><path d="M 376 222v 11h 5.5a 5.5 5.5, 0, 0, 0, 0 -11" transform="rotate(0,381.5,227.5)"/><path d="M 376 255v 11h 11v -5.5a 5.5 5.5, 0, 0, 0, -5.5 -5.5" transform="rotate(0,381.5,260.5)"/><rect x="376" y="266" width="11" height="11" transform="rotate(0,381.5,271.5)"/><rect x="376" y="288" width="11" height="11" transform="rotate(0,381.5,293.5)"/><path d="M 376 299v 11h 11v -5.5a 5.5 5.5, 0, 0, 0, -5.5 -5.5" transform="rotate(180,381.5,304.5)"/><rect x="376" y="332" width="11" height="11" transform="rotate(0,381.5,337.5)"/><rect x="376" y="376" width="11" height="11" transform="rotate(0,381.5,381.5)"/><rect x="376" y="387" width="11" height="11" transform="rotate(0,381.5,392.5)"/><rect x="376" y="398" width="11" height="11" transform="rotate(0,381.5,403.5)"/><rect x="376" y="409" width="11" height="11" transform="rotate(0,381.5,414.5)"/><rect x="376" y="420" width="11" height="11" transform="rotate(0,381.5,425.5)"/><path d="M 376 442v 11h 5.5a 5.5 5.5, 0, 0, 0, 0 -11" transform="rotate(180,381.5,447.5)"/><path d="M 387 112v 11h 11v -5.5a 5.5 5.5, 0, 0, 0, -5.5 -5.5" transform="rotate(-90,392.5,117.5)"/><path d="M 387 123v 11h 11v -5.5a 5.5 5.5, 0, 0, 0, -5.5 -5.5" transform="rotate(180,392.5,128.5)"/><path d="M 387 156v 11h 5.5a 5.5 5.5, 0, 0, 0, 0 -11" transform="rotate(0,392.5,161.5)"/><path d="M 387 178v 11h 11v -5.5a 5.5 5.5, 0, 0, 0, -5.5 -5.5" transform="rotate(0,392.5,183.5)"/><path d="M 387 189v 11h 5.5a 5.5 5.5, 0, 0, 0, 0 -11" transform="rotate(90,392.5,194.5)"/><path d="M 387 233v 11h 11v -5.5a 5.5 5.5, 0, 0, 0, -5.5 -5.5" transform="rotate(-90,392.5,238.5)"/><path d="M 387 244v 11h 11v -5.5a 5.5 5.5, 0, 0, 0, -5.5 -5.5" transform="rotate(180,392.5,249.5)"/><path d="M 387 266v 11h 5.5a 5.5 5.5, 0, 0, 0, 0 -11" transform="rotate(0,392.5,271.5)"/><path d="M 387 288v 11h 11v -5.5a 5.5 5.5, 0, 0, 0, -5.5 -5.5" transform="rotate(0,392.5,293.5)"/><rect x="387" y="299" width="11" height="11" transform="rotate(0,392.5,304.5)"/><path d="M 387 332v 11h 5.5a 5.5 5.5, 0, 0, 0, 0 -11" transform="rotate(0,392.5,337.5)"/><path d="M 387 354v 11h 5.5a 5.5 5.5, 0, 0, 0, 0 -11" transform="rotate(-90,392.5,359.5)"/><rect x="387" y="365" width="11" height="11" transform="rotate(0,392.5,370.5)"/><rect x="387" y="376" width="11" height="11" transform="rotate(0,392.5,381.5)"/><rect x="387" y="420" width="11" height="11" transform="rotate(0,392.5,425.5)"/><path d="M 387 442v 11h 11v -5.5a 5.5 5.5, 0, 0, 0, -5.5 -5.5" transform="rotate(0,392.5,447.5)"/><rect x="387" y="453" width="11" height="11" transform="rotate(0,392.5,458.5)"/><path d="M 387 464v 11h 5.5a 5.5 5.5, 0, 0, 0, 0 -11" transform="rotate(90,392.5,469.5)"/><rect x="398" y="112" width="11" height="11" transform="rotate(0,403.5,117.5)"/><rect x="398" y="123" width="11" height="11" transform="rotate(0,403.5,128.5)"/><rect x="398" y="134" width="11" height="11" transform="rotate(0,403.5,139.5)"/><path d="M 398 145v 11h 11v -5.5a 5.5 5.5, 0, 0, 0, -5.5 -5.5" transform="rotate(180,403.5,150.5)"/><circle cx="403.5" cy="205.5" r="5.5" transform="rotate(0,403.5,205.5)"/><path d="M 398 222v 11h 11v -5.5a 5.5 5.5, 0, 0, 0, -5.5 -5.5" transform="rotate(-90,403.5,227.5)"/><rect x="398" y="233" width="11" height="11" transform="rotate(0,403.5,238.5)"/><rect x="398" y="244" width="11" height="11" transform="rotate(0,403.5,249.5)"/><path d="M 398 255v 11h 5.5a 5.5 5.5, 0, 0, 0, 0 -11" transform="rotate(90,403.5,260.5)"/><rect x="398" y="299" width="11" height="11" transform="rotate(0,403.5,304.5)"/><path d="M 398 310v 11h 5.5a 5.5 5.5, 0, 0, 0, 0 -11" transform="rotate(90,403.5,315.5)"/><path d="M 398 343v 11h 5.5a 5.5 5.5, 0, 0, 0, 0 -11" transform="rotate(180,403.5,348.5)"/><rect x="398" y="376" width="11" height="11" transform="rotate(0,403.5,381.5)"/><circle cx="403.5" cy="403.5" r="5.5" transform="rotate(0,403.5,403.5)"/><rect x="398" y="420" width="11" height="11" transform="rotate(0,403.5,425.5)"/><path d="M 398 431v 11h 5.5a 5.5 5.5, 0, 0, 0, 0 -11" transform="rotate(90,403.5,436.5)"/><path d="M 409 112v 11h 11v -5.5a 5.5 5.5, 0, 0, 0, -5.5 -5.5" transform="rotate(0,414.5,117.5)"/><rect x="409" y="123" width="11" height="11" transform="rotate(0,414.5,128.5)"/><rect x="409" y="145" width="11" height="11" transform="rotate(0,414.5,150.5)"/><rect x="409" y="156" width="11" height="11" transform="rotate(0,414.5,161.5)"/><rect x="409" y="167" width="11" height="11" transform="rotate(0,414.5,172.5)"/><path d="M 409 178v 11h 5.5a 5.5 5.5, 0, 0, 0, 0 -11" transform="rotate(90,414.5,183.5)"/><path d="M 409 211v 11h 11v -5.5a 5.5 5.5, 0, 0, 0, -5.5 -5.5" transform="rotate(-90,414.5,216.5)"/><rect x="409" y="222" width="11" height="11" transform="rotate(0,414.5,227.5)"/><rect x="409" y="244" width="11" height="11" transform="rotate(0,414.5,249.5)"/><path d="M 409 277v 11h 11v -5.5a 5.5 5.5, 0, 0, 0, -5.5 -5.5" transform="rotate(-90,414.5,282.5)"/><rect x="409" y="288" width="11" height="11" transform="rotate(0,414.5,293.5)"/><path d="M 409 299v 11h 11v -5.5a 5.5 5.5, 0, 0, 0, -5.5 -5.5" transform="rotate(90,414.5,304.5)"/><circle cx="414.5" cy="326.5" r="5.5" transform="rotate(0,414.5,326.5)"/><path d="M 409 343v 11h 5.5a 5.5 5.5, 0, 0, 0, 0 -11" transform="rotate(0,414.5,348.5)"/><path d="M 409 365v 11h 5.5a 5.5 5.5, 0, 0, 0, 0 -11" transform="rotate(-90,414.5,370.5)"/><rect x="409" y="376" width="11" height="11" transform="rotate(0,414.5,381.5)"/><rect x="409" y="420" width="11" height="11" transform="rotate(0,414.5,425.5)"/><circle cx="414.5" cy="447.5" r="5.5" transform="rotate(0,414.5,447.5)"/><rect x="420" y="123" width="11" height="11" transform="rotate(0,425.5,128.5)"/><rect x="420" y="134" width="11" height="11" transform="rotate(0,425.5,139.5)"/><rect x="420" y="145" width="11" height="11" transform="rotate(0,425.5,150.5)"/><path d="M 420 200v 11h 5.5a 5.5 5.5, 0, 0, 0, 0 -11" transform="rotate(-90,425.5,205.5)"/><rect x="420" y="211" width="11" height="11" transform="rotate(0,425.5,216.5)"/><rect x="420" y="222" width="11" height="11" transform="rotate(0,425.5,227.5)"/><rect x="420" y="233" width="11" height="11" transform="rotate(0,425.5,238.5)"/><path d="M 420 244v 11h 11v -5.5a 5.5 5.5, 0, 0, 0, -5.5 -5.5" transform="rotate(90,425.5,249.5)"/><path d="M 420 266v 11h 5.5a 5.5 5.5, 0, 0, 0, 0 -11" transform="rotate(-90,425.5,271.5)"/><rect x="420" y="277" width="11" height="11" transform="rotate(0,425.5,282.5)"/><path d="M 420 288v 11h 11v -5.5a 5.5 5.5, 0, 0, 0, -5.5 -5.5" transform="rotate(90,425.5,293.5)"/><path d="M 420 310v 11h 5.5a 5.5 5.5, 0, 0, 0, 0 -11" transform="rotate(180,425.5,315.5)"/><path d="M 420 376v 11h 11v -5.5a 5.5 5.5, 0, 0, 0, -5.5 -5.5" transform="rotate(0,425.5,381.5)"/><rect x="420" y="387" width="11" height="11" transform="rotate(0,425.5,392.5)"/><rect x="420" y="398" width="11" height="11" transform="rotate(0,425.5,403.5)"/><rect x="420" y="409" width="11" height="11" transform="rotate(0,425.5,414.5)"/><rect x="420" y="420" width="11" height="11" transform="rotate(0,425.5,425.5)"/><path d="M 420 431v 11h 11v -5.5a 5.5 5.5, 0, 0, 0, -5.5 -5.5" transform="rotate(180,425.5,436.5)"/><path d="M 420 453v 11h 11v -5.5a 5.5 5.5, 0, 0, 0, -5.5 -5.5" transform="rotate(-90,425.5,458.5)"/><path d="M 420 464v 11h 11v -5.5a 5.5 5.5, 0, 0, 0, -5.5 -5.5" transform="rotate(180,425.5,469.5)"/><path d="M 431 112v 11h 5.5a 5.5 5.5, 0, 0, 0, 0 -11" transform="rotate(-90,436.5,117.5)"/><rect x="431" y="123" width="11" height="11" transform="rotate(0,436.5,128.5)"/><rect x="431" y="134" width="11" height="11" transform="rotate(0,436.5,139.5)"/><rect x="431" y="145" width="11" height="11" transform="rotate(0,436.5,150.5)"/><rect x="431" y="156" width="11" height="11" transform="rotate(0,436.5,161.5)"/><path d="M 431 167v 11h 11v -5.5a 5.5 5.5, 0, 0, 0, -5.5 -5.5" transform="rotate(180,436.5,172.5)"/><path d="M 431 189v 11h 5.5a 5.5 5.5, 0, 0, 0, 0 -11" transform="rotate(180,436.5,194.5)"/><path d="M 431 211v 11h 11v -5.5a 5.5 5.5, 0, 0, 0, -5.5 -5.5" transform="rotate(0,436.5,216.5)"/><rect x="431" y="222" width="11" height="11" transform="rotate(0,436.5,227.5)"/><path d="M 431 233v 11h 11v -5.5a 5.5 5.5, 0, 0, 0, -5.5 -5.5" transform="rotate(90,436.5,238.5)"/><path d="M 431 310v 11h 5.5a 5.5 5.5, 0, 0, 0, 0 -11" transform="rotate(0,436.5,315.5)"/><path d="M 431 343v 11h 5.5a 5.5 5.5, 0, 0, 0, 0 -11" transform="rotate(180,436.5,348.5)"/><circle cx="436.5" cy="370.5" r="5.5" transform="rotate(0,436.5,370.5)"/><path d="M 431 387v 11h 11v -5.5a 5.5 5.5, 0, 0, 0, -5.5 -5.5" transform="rotate(0,436.5,392.5)"/><path d="M 431 398v 11h 11v -5.5a 5.5 5.5, 0, 0, 0, -5.5 -5.5" transform="rotate(90,436.5,403.5)"/><rect x="431" y="420" width="11" height="11" transform="rotate(0,436.5,425.5)"/><rect x="431" y="431" width="11" height="11" transform="rotate(0,436.5,436.5)"/><rect x="431" y="453" width="11" height="11" transform="rotate(0,436.5,458.5)"/><rect x="431" y="464" width="11" height="11" transform="rotate(0,436.5,469.5)"/><rect x="442" y="123" width="11" height="11" transform="rotate(0,447.5,128.5)"/><path d="M 442 145v 11h 5.5a 5.5 5.5, 0, 0, 0, 0 -11" transform="rotate(0,447.5,150.5)"/><path d="M 442 167v 11h 11v -5.5a 5.5 5.5, 0, 0, 0, -5.5 -5.5" transform="rotate(0,447.5,172.5)"/><rect x="442" y="178" width="11" height="11" transform="rotate(0,447.5,183.5)"/><rect x="442" y="189" width="11" height="11" transform="rotate(0,447.5,194.5)"/><path d="M 442 200v 11h 11v -5.5a 5.5 5.5, 0, 0, 0, -5.5 -5.5" transform="rotate(180,447.5,205.5)"/><circle cx="447.5" cy="260.5" r="5.5" transform="rotate(0,447.5,260.5)"/><path d="M 442 277v 11h 5.5a 5.5 5.5, 0, 0, 0, 0 -11" transform="rotate(180,447.5,282.5)"/><rect x="442" y="343" width="11" height="11" transform="rotate(0,447.5,348.5)"/><path d="M 442 354v 11h 5.5a 5.5 5.5, 0, 0, 0, 0 -11" transform="rotate(90,447.5,359.5)"/><path d="M 442 376v 11h 5.5a 5.5 5.5, 0, 0, 0, 0 -11" transform="rotate(180,447.5,381.5)"/><path d="M 442 420v 11h 11v -5.5a 5.5 5.5, 0, 0, 0, -5.5 -5.5" transform="rotate(0,447.5,425.5)"/><rect x="442" y="431" width="11" height="11" transform="rotate(0,447.5,436.5)"/><rect x="442" y="453" width="11" height="11" transform="rotate(0,447.5,458.5)"/><path d="M 442 464v 11h 11v -5.5a 5.5 5.5, 0, 0, 0, -5.5 -5.5" transform="rotate(90,447.5,469.5)"/><path d="M 453 112v 11h 5.5a 5.5 5.5, 0, 0, 0, 0 -11" transform="rotate(-90,458.5,117.5)"/><path d="M 453 123v 11h 11v -5.5a 5.5 5.5, 0, 0, 0, -5.5 -5.5" transform="rotate(90,458.5,128.5)"/><rect x="453" y="178" width="11" height="11" transform="rotate(0,458.5,183.5)"/><rect x="453" y="200" width="11" height="11" transform="rotate(0,458.5,205.5)"/><rect x="453" y="211" width="11" height="11" transform="rotate(0,458.5,216.5)"/><rect x="453" y="222" width="11" height="11" transform="rotate(0,458.5,227.5)"/><rect x="453" y="233" width="11" height="11" transform="rotate(0,458.5,238.5)"/><path d="M 453 244v 11h 5.5a 5.5 5.5, 0, 0, 0, 0 -11" transform="rotate(90,458.5,249.5)"/><rect x="453" y="277" width="11" height="11" transform="rotate(0,458.5,282.5)"/><circle cx="458.5" cy="304.5" r="5.5" transform="rotate(0,458.5,304.5)"/><path d="M 453 332v 11h 11v -5.5a 5.5 5.5, 0, 0, 0, -5.5 -5.5" transform="rotate(-90,458.5,337.5)"/><rect x="453" y="343" width="11" height="11" transform="rotate(0,458.5,348.5)"/><path d="M 453 365v 11h 11v -5.5a 5.5 5.5, 0, 0, 0, -5.5 -5.5" transform="rotate(-90,458.5,370.5)"/><rect x="453" y="376" width="11" height="11" transform="rotate(0,458.5,381.5)"/><path d="M 453 387v 11h 5.5a 5.5 5.5, 0, 0, 0, 0 -11" transform="rotate(90,458.5,392.5)"/><path d="M 453 409v 11h 5.5a 5.5 5.5, 0, 0, 0, 0 -11" transform="rotate(180,458.5,414.5)"/><path d="M 453 431v 11h 5.5a 5.5 5.5, 0, 0, 0, 0 -11" transform="rotate(0,458.5,436.5)"/><rect x="453" y="453" width="11" height="11" transform="rotate(0,458.5,458.5)"/><path d="M 464 134v 11h 5.5a 5.5 5.5, 0, 0, 0, 0 -11" transform="rotate(-90,469.5,139.5)"/><path d="M 464 145v 11h 5.5a 5.5 5.5, 0, 0, 0, 0 -11" transform="rotate(90,469.5,150.5)"/><path d="M 464 167v 11h 5.5a 5.5 5.5, 0, 0, 0, 0 -11" transform="rotate(-90,469.5,172.5)"/><path d="M 464 178v 11h 11v -5.5a 5.5 5.5, 0, 0, 0, -5.5 -5.5" transform="rotate(90,469.5,183.5)"/><path d="M 464 200v 11h 11v -5.5a 5.5 5.5, 0, 0, 0, -5.5 -5.5" transform="rotate(0,469.5,205.5)"/><rect x="464" y="211" width="11" height="11" transform="rotate(0,469.5,216.5)"/><path d="M 464 222v 11h 11v -5.5a 5.5 5.5, 0, 0, 0, -5.5 -5.5" transform="rotate(90,469.5,227.5)"/><circle cx="469.5" cy="260.5" r="5.5" transform="rotate(0,469.5,260.5)"/><path d="M 464 277v 11h 11v -5.5a 5.5 5.5, 0, 0, 0, -5.5 -5.5" transform="rotate(0,469.5,282.5)"/><path d="M 464 288v 11h 5.5a 5.5 5.5, 0, 0, 0, 0 -11" transform="rotate(90,469.5,293.5)"/><path d="M 464 321v 11h 5.5a 5.5 5.5, 0, 0, 0, 0 -11" transform="rotate(-90,469.5,326.5)"/><rect x="464" y="332" width="11" height="11" transform="rotate(0,469.5,337.5)"/><path d="M 464 343v 11h 11v -5.5a 5.5 5.5, 0, 0, 0, -5.5 -5.5" transform="rotate(90,469.5,348.5)"/><path d="M 464 365v 11h 11v -5.5a 5.5 5.5, 0, 0, 0, -5.5 -5.5" transform="rotate(0,469.5,370.5)"/><path d="M 464 376v 11h 11v -5.5a 5.5 5.5, 0, 0, 0, -5.5 -5.5" transform="rotate(90,469.5,381.5)"/><path d="M 464 398v 11h 5.5a 5.5 5.5, 0, 0, 0, 0 -11" transform="rotate(-90,469.5,403.5)"/><rect x="464" y="409" width="11" height="11" transform="rotate(0,469.5,414.5)"/><path d="M 464 420v 11h 5.5a 5.5 5.5, 0, 0, 0, 0 -11" transform="rotate(90,469.5,425.5)"/><path d="M 464 453v 11h 5.5a 5.5 5.5, 0, 0, 0, 0 -11" transform="rotate(0,469.5,458.5)"/></clipPath><clipPath id="clip-path-corners-square-color-0-0"><path clip-rule="evenodd" d="M 24 51.5v 22a 27.5 27.5, 0, 0, 0, 27.5 27.5h 22a 27.5 27.5, 0, 0, 0, 27.5 -27.5v -22a 27.5 27.5, 0, 0, 0, -27.5 -27.5h -22a 27.5 27.5, 0, 0, 0, -27.5 27.5M 51.5 35h 22a 16.5 16.5, 0, 0, 1, 16.5 16.5v 22a 16.5 16.5, 0, 0, 1, -16.5 16.5h -22a 16.5 16.5, 0, 0, 1, -16.5 -16.5v -22a 16.5 16.5, 0, 0, 1, 16.5 -16.5" transform="rotate(0,62.5,62.5)"/></clipPath><clipPath id="clip-path-corners-dot-color-0-0"><circle cx="62.5" cy="62.5" r="16.5" transform="rotate(0,62.5,62.5)"/></clipPath><clipPath id="clip-path-corners-square-color-1-0"><path clip-rule="evenodd" d="M 398 51.5v 22a 27.5 27.5, 0, 0, 0, 27.5 27.5h 22a 27.5 27.5, 0, 0, 0, 27.5 -27.5v -22a 27.5 27.5, 0, 0, 0, -27.5 -27.5h -22a 27.5 27.5, 0, 0, 0, -27.5 27.5M 425.5 35h 22a 16.5 16.5, 0, 0, 1, 16.5 16.5v 22a 16.5 16.5, 0, 0, 1, -16.5 16.5h -22a 16.5 16.5, 0, 0, 1, -16.5 -16.5v -22a 16.5 16.5, 0, 0, 1, 16.5 -16.5" transform="rotate(90,436.5,62.5)"/></clipPath><clipPath id="clip-path-corners-dot-color-1-0"><circle cx="436.5" cy="62.5" r="16.5" transform="rotate(90,436.5,62.5)"/></clipPath><clipPath id="clip-path-corners-square-color-0-1"><path clip-rule="evenodd" d="M 24 425.5v 22a 27.5 27.5, 0, 0, 0, 27.5 27.5h 22a 27.5 27.5, 0, 0, 0, 27.5 -27.5v -22a 27.5 27.5, 0, 0, 0, -27.5 -27.5h -22a 27.5 27.5, 0, 0, 0, -27.5 27.5M 51.5 409h 22a 16.5 16.5, 0, 0, 1, 16.5 16.5v 22a 16.5 16.5, 0, 0, 1, -16.5 16.5h -22a 16.5 16.5, 0, 0, 1, -16.5 -16.5v -22a 16.5 16.5, 0, 0, 1, 16.5 -16.5" transform="rotate(-90,62.5,436.5)"/></clipPath><clipPath id="clip-path-corners-dot-color-0-1"><circle cx="62.5" cy="436.5" r="16.5" transform="rotate(-90,62.5,436.5)"/></clipPath></defs><rect x="0" y="0" height="500" width="500" clip-path="url('#clip-path-background-color')" fill="#fff"/><rect x="0" y="0" height="500" width="500" clip-path="url('#clip-path-dot-color')" fill="#000000"/><rect x="24" y="24" height="77" width="77" clip-path="url('#clip-path-corners-square-color-0-0')" fill="#000000"/><rect x="46" y="46" height="33" width="33" clip-path="url('#clip-path-corners-dot-color-0-0')" fill="#000000"/><rect x="398" y="24" height="77" width="77" clip-path="url('#clip-path-corners-square-color-1-0')" fill="#000000"/><rect x="420" y="46" height="33" width="33" clip-path="url('#clip-path-corners-dot-color-1-0')" fill="#000000"/><rect x="24" y="398" height="77" width="77" clip-path="url('#clip-path-corners-square-color-0-1')" fill="#000000"/><rect x="46" y="420" height="33" width="33" clip-path="url('#clip-path-corners-dot-color-0-1')" fill="#000000"/></svg>